<?xml version="1.0" encoding="UTF-8"?>
<svg xmlns="http://www.w3.org/2000/svg" xmlns:xlink="http://www.w3.org/1999/xlink" width="15px" height="15px" viewBox="0 0 15 15" version="1.1">
<g id="surface1">
<path style=" stroke:none;fill-rule:nonzero;fill:rgb(0%,0%,0%);fill-opacity:1;" d="M 13.695312 6.539062 L 13.566406 6.539062 L 13.566406 5.570312 C 13.566406 3.34375 10.867188 1.53125 7.546875 1.53125 C 4.226562 1.53125 1.527344 3.347656 1.527344 5.570312 L 1.527344 6.539062 L 1.304688 6.539062 C 0.910156 6.539062 0.589844 6.859375 0.589844 7.25 L 0.589844 7.75 C 0.589844 8.140625 0.910156 8.460938 1.304688 8.460938 L 1.527344 8.460938 L 1.527344 9.429688 C 1.527344 11.652344 4.226562 13.460938 7.546875 13.460938 C 10.867188 13.460938 13.566406 11.652344 13.566406 9.429688 L 13.566406 8.460938 L 13.695312 8.460938 C 14.089844 8.460938 14.410156 8.140625 14.410156 7.75 L 14.410156 7.25 C 14.410156 6.859375 14.089844 6.539062 13.695312 6.539062 Z M 7.546875 2.242188 C 10.289062 2.242188 12.554688 3.546875 12.835938 5.222656 L 2.257812 5.222656 C 2.539062 3.546875 4.804688 2.242188 7.546875 2.242188 Z M 2.230469 5.921875 L 12.863281 5.921875 L 12.863281 6.539062 L 2.230469 6.539062 Z M 7.546875 12.753906 C 4.804688 12.753906 2.539062 11.445312 2.257812 9.777344 L 8.113281 9.777344 L 8.957031 11.183594 C 9.023438 11.292969 9.136719 11.351562 9.257812 11.351562 C 9.378906 11.351562 9.496094 11.289062 9.558594 11.183594 L 10.402344 9.777344 L 12.824219 9.777344 C 12.542969 11.445312 10.28125 12.753906 7.539062 12.753906 Z M 12.863281 9.074219 L 10.210938 9.074219 C 10.085938 9.074219 9.96875 9.140625 9.910156 9.242188 L 9.261719 10.316406 L 8.617188 9.242188 C 8.550781 9.136719 8.4375 9.074219 8.316406 9.074219 L 2.230469 9.074219 L 2.230469 8.457031 L 12.863281 8.457031 Z M 13.695312 7.753906 L 1.292969 7.742188 L 1.304688 7.238281 L 13.691406 7.238281 C 13.691406 7.238281 13.703125 7.246094 13.703125 7.246094 L 13.691406 7.753906 Z M 13.695312 7.753906 "/>
</g>
</svg>
